PathFileType	4	(X/Y/Z)	s06c0202.trc
DataRate	CameraRate	NumFrames	NumMarkers	Units	OrigDataRate	OrigDataStartFrame	OrigNumFrames
200	200	4	48	mm	200	0	2000
Frame#	Time	racr			lacr			c7			jug			rlel			rdr			llel			ldr			s2			lic			ric			lasi			rasi			rpsi			lpsi			rgt			lgt			rth1			rth2			rth3			rth4			rlfc			rmfc			rsh1			rsh2			rsh3			rsh4			rlmal			rcal			rtoe			rmt5			lth1			lth2			lth4			lth3			llfc			lmfc			llmal			lcal			lmt5			lsh1			lsh2			lsh3			lsh4			ltoe			SBIKE			LBIKE			RBIKE			
		X1	Y1	Z1	X2	Y2	Z2	X3	Y3	Z3	X4	Y4	Z4	X5	Y5	Z5	X6	Y6	Z6	X7	Y7	Z7	X8	Y8	Z8	X9	Y9	Z9	X10	Y10	Z10	X11	Y11	Z11	X12	Y12	Z12	X13	Y13	Z13	X14	Y14	Z14	X15	Y15	Z15	X16	Y16	Z16	X17	Y17	Z17	X18	Y18	Z18	X19	Y19	Z19	X20	Y20	Z20	X21	Y21	Z21	X22	Y22	Z22	X23	Y23	Z23	X24	Y24	Z24	X25	Y25	Z25	X26	Y26	Z26	X27	Y27	Z27	X28	Y28	Z28	X29	Y29	Z29	X30	Y30	Z30	X31	Y31	Z31	X32	Y32	Z32	X33	Y33	Z33	X34	Y34	Z34	X35	Y35	Z35	X36	Y36	Z36	X37	Y37	Z37	X38	Y38	Z38	X39	Y39	Z39	X40	Y40	Z40	X41	Y41	Z41	X42	Y42	Z42	X43	Y43	Z43	X44	Y44	Z44	X45	Y45	Z45	X46	Y46	Z46	X47	Y47	Z47	X48	Y48	Z48	
0	0.0000	448.395744	1308.283605	-61.766346	470.677293	1312.880880	-398.955284	453.092554	1422.226331	-228.090878	474.656150	1267.166401	-224.137010	472.221692	1048.420788	30.095511	666.905771	924.650556	-48.443958	466.945100	1043.905511	-474.382251	667.420541	923.993076	-408.159183	-34.448026	1145.384942	-231.060922	151.817441	1092.593203	-391.446190	119.206669	1106.313427	-50.743838	152.692268	1028.226386	-357.598922	137.105229	1047.886360	-80.995521	-0.026120	1178.478642	-195.675656	2.674366	1177.266273	-257.191230	76.326786	1056.799063	-17.382412	103.355462	1031.671737	-418.988517	175.382224	985.238176	-18.251912	262.510038	959.710004	-20.941117	321.724393	896.266334	-22.905714	278.308696	988.531479	-39.552190	387.356394	811.371781	-43.313971	389.553471	785.656467	-153.618361	355.687923	693.601441	-17.419020	353.737755	607.820293	-37.306267	311.760752	531.774630	-41.467414	376.406596	606.082357	-69.592650	284.677536	452.361695	-47.309450	220.004904	434.624944	-97.994432	487.076605	365.981773	-102.491720	389.838565	362.561560	-30.802833	147.182842	923.704400	-424.289859	216.923042	873.285501	-418.022746	244.955353	894.707874	-405.484539	252.608424	790.503873	-412.564794	281.245415	682.284513	-385.651788	280.502249	664.542440	-268.763925	28.940573	413.080729	-381.571809	-44.399048	433.609043	-337.284347	80.729135	278.436832	-401.658402	214.310778	600.583233	-408.829815	173.266258	525.836361	-390.900897	98.145015	477.450666	-391.109304	192.211804	512.940829	-359.277853	150.358981	230.304334	-340.867931	-203.259588	866.082373	-215.425695	-49.323893	79.973491	-415.112563	-48.927139	79.457175	-17.665457	
1	0.0050	448.450938	1308.297858	-61.744285	470.687364	1312.900780	-398.955076	453.090075	1422.237602	-228.074142	474.708769	1267.187298	-224.159790	472.236093	1048.424006	30.175415	666.890187	924.648066	-48.392512	466.963455	1043.938480	-474.418912	667.410843	924.005814	-408.173655	-34.412533	1145.407931	-231.094427	151.872925	1092.593562	-391.459476	119.231247	1106.300744	-50.755103	152.714033	1028.213409	-357.615358	137.098685	1047.859601	-80.998117	-0.002005	1178.512301	-195.716716	2.666035	1177.271947	-257.210333	76.357145	1056.865046	-17.425867	103.387794	1031.673332	-418.987695	175.293687	985.102079	-18.771615	262.545304	959.767370	-20.916769	321.767929	896.364896	-22.881612	278.335242	988.619172	-39.472065	387.383691	811.488322	-43.279959	389.573151	785.728491	-153.611850	355.760058	693.718486	-17.408601	353.793588	608.005021	-37.352760	311.757023	531.871738	-41.454668	376.410739	606.153329	-69.575073	284.657174	452.453510	-47.291872	220.000839	434.708680	-97.979188	487.049773	366.035961	-102.470956	389.824307	362.650389	-30.787888	147.191282	923.693907	-424.295613	216.922738	873.290490	-418.024381	244.974104	894.716747	-405.482115	252.605823	790.479383	-412.547528	281.263279	682.239538	-385.607060	280.525125	664.546668	-268.737100	29.003834	413.009953	-381.556750	-44.321364	433.546543	-337.278060	80.763809	278.353469	-401.638472	214.375759	600.546362	-408.824088	173.454282	525.691895	-390.931763	98.217446	477.384459	-391.092027	192.360025	513.063515	-359.252280	150.370678	230.217885	-340.889120	-203.261592	866.089083	-215.413584	-49.316133	79.963664	-415.107154	-48.929861	79.470736	-17.651060	
2	0.0100	448.479645	1308.291840	-61.722901	470.703848	1312.929706	-398.968077	453.087784	1422.272335	-228.067508	474.730788	1267.204702	-224.127539	472.231336	1048.438664	30.239090	666.880649	924.643194	-48.353698	466.948467	1043.962532	-474.481167	667.399864	923.997299	-408.189386	-34.396511	1145.412886	-231.124728	151.930466	1092.583122	-391.466004	119.225437	1106.340953	-50.762768	152.745552	1028.200315	-357.643783	137.104562	1047.903710	-81.006440	-0.038259	1178.531215	-195.729977	2.684501	1177.286228	-257.222992	76.387712	1056.913986	-17.439465	103.425935	1031.664413	-419.013594	175.295746	985.155257	-18.769849	262.549809	959.832082	-20.890183	321.783873	896.444609	-22.843861	278.363995	988.735433	-39.416739	387.421486	811.588435	-43.247002	389.598794	785.789151	-153.562485	355.779122	693.804690	-17.387457	353.802857	608.098034	-37.334354	311.770199	531.957769	-41.438844	376.429981	606.234085	-69.543016	284.645576	452.553380	-47.290159	219.993877	434.809498	-97.971039	487.045654	366.126166	-102.474605	389.812009	362.715028	-30.787599	147.197535	923.678780	-424.288322	216.934430	873.272872	-418.034764	244.987813	894.697174	-405.498979	252.599422	790.477543	-412.529567	281.278679	682.221287	-385.582034	280.548488	664.555370	-268.708457	29.061982	412.934606	-381.553460	-44.249127	433.480319	-337.271801	80.793468	278.276350	-401.651107	214.409044	600.503593	-408.803577	173.508416	525.642320	-390.926955	98.268601	477.319442	-391.096592	192.378029	512.970436	-359.214683	150.384923	230.073904	-340.871721	-203.268627	866.086229	-215.412063	-49.332471	79.984768	-415.116430	-48.925662	79.469766	-17.640893	
3	0.0150	449.243875	1308.272883	-61.538323	470.718442	1312.945032	-398.986257	453.090713	1422.292481	-228.067000	474.759939	1267.210362	-224.147999	472.292026	1048.761257	30.686915	666.863652	924.638023	-48.282962	466.934729	1043.981501	-474.539038	667.423561	923.950661	-408.227742	-35.146998	1146.240896	-228.877590	150.978227	1091.585950	-391.388586	119.149419	1106.223827	-50.756441	152.781500	1028.188628	-357.678202	136.969015	1047.758329	-80.980805	0.030922	1178.519940	-195.772199	2.701481	1177.287385	-257.254644	76.414884	1056.949272	-17.451259	103.489627	1031.707143	-419.063271	175.357174	985.273909	-18.443640	262.559836	959.909454	-20.860854	321.235808	896.729263	-22.205260	278.487592	988.749658	-39.359873	388.159115	811.419225	-43.010671	389.744794	785.887562	-153.516336	355.716284	693.858366	-17.303188	353.509472	608.122865	-37.617819	311.515431	532.167258	-41.612788	376.658978	606.147997	-69.552253	284.670606	452.587953	-47.234093	219.987706	434.927727	-97.954910	487.011210	366.110692	-102.277011	389.802920	362.787897	-30.800922	147.206652	923.677970	-424.308819	217.201554	872.455778	-417.666243	244.956866	894.586633	-405.342788	252.597584	790.447028	-412.510502	281.281205	682.193007	-385.565399	280.548022	664.527716	-268.690121	29.124836	412.870315	-381.546246	-44.193189	433.428753	-337.267796	80.831082	278.150844	-401.656096	214.600816	600.383370	-408.858329	173.520627	525.459267	-391.009432	98.087404	477.547401	-391.461299	192.424599	512.924728	-359.182540	150.391836	229.979015	-340.874305	-203.317650	865.984738	-215.486265	-49.329043	79.971905	-415.103852	-48.939211	79.468549	-17.650756	
